<svg width="44" height="39" viewBox="0 0 44 39" fill="none" xmlns="http://www.w3.org/2000/svg">
<path d="M43.1207 23.8202V38.8521H33.9475V24.8269C33.9475 21.3037 32.6207 18.8992 29.3003 18.8992C26.7656 18.8992 25.2572 20.5197 24.5936 22.0872C24.3516 22.6475 24.2893 23.4275 24.2893 24.2119V38.8521H15.1131C15.1131 38.8521 15.2366 15.0981 15.1131 12.637H24.2884V16.3529C24.2698 16.3807 24.2457 16.4106 24.2281 16.4376H24.2884V16.3529C25.5075 14.5692 27.6846 12.0211 32.5575 12.0211C38.5948 12.021 43.1207 15.7679 43.1207 23.8202ZM5.51427 0C2.37507 0 0.321777 1.95611 0.321777 4.52847C0.321777 7.04476 2.31567 9.06024 5.39247 9.06024H5.45377C8.65376 9.06024 10.6439 7.04514 10.6439 4.52847C10.5836 1.95611 8.65376 0 5.51427 0ZM0.866768 38.8521H10.0396V12.637H0.866768V38.8521Z" fill="white"/>
</svg>
