<svg width="48" height="39" viewBox="0 0 48 39" fill="none" xmlns="http://www.w3.org/2000/svg">
<path d="M43.068 9.726C45.02 8.34 46.662 6.61 48 4.618V4.616C46.214 5.398 44.314 5.918 42.33 6.17C44.37 4.952 45.928 3.038 46.66 0.732C44.758 1.866 42.658 2.666 40.42 3.114C38.614 1.19 36.04 0 33.232 0C27.784 0 23.398 4.422 23.398 9.842C23.398 10.622 23.464 11.372 23.626 12.086C15.446 11.686 8.206 7.766 3.342 1.792C2.494 3.266 1.994 4.952 1.994 6.766C1.994 10.174 3.748 13.194 6.366 14.944C4.784 14.914 3.234 14.454 1.92 13.732V13.84C1.92 18.622 5.33 22.594 9.804 23.51C9.002 23.73 8.13 23.834 7.224 23.834C6.594 23.834 5.958 23.798 5.362 23.666C6.636 27.562 10.256 30.428 14.556 30.522C11.208 33.14 6.956 34.718 2.354 34.718C1.548 34.718 0.774 34.682 0 34.584C4.36 37.394 9.524 39 15.096 39C32.462 39 43.78 24.512 43.068 9.726Z" fill="white"/>
</svg>
